<svg width="105" height="31" viewBox="0 0 105 31" fill="none" xmlns="http://www.w3.org/2000/svg">
<path d="M24.132 2.54347V30.5115H18.622V19.1495H6.12V30.5115H0.61V2.54347H6.12V13.8295H18.622V2.54347H24.132ZM38.6326 30.9675C36.6059 30.9675 34.8832 30.5875 33.4646 29.8275C32.0712 29.0675 31.0072 28.0161 30.2726 26.6735C29.5379 25.3308 29.1706 23.7855 29.1706 22.0375C29.1706 20.3655 29.6012 18.8581 30.4626 17.5155C31.3239 16.1728 32.4766 15.1088 33.9206 14.3235C35.3646 13.5128 36.9732 13.1075 38.7466 13.1075C41.1279 13.1075 43.0786 13.8041 44.5986 15.1975C46.1439 16.5655 47.1446 18.5541 47.6006 21.1635L35.4406 25.0395C36.2512 25.9768 37.3532 26.4455 38.7466 26.4455C39.3292 26.4455 39.8866 26.3441 40.4186 26.1415C40.9759 25.9388 41.5206 25.6728 42.0526 25.3435L44.4086 29.2955C43.5219 29.8021 42.5592 30.2075 41.5206 30.5115C40.5072 30.8155 39.5446 30.9675 38.6326 30.9675ZM34.4146 21.7335C34.4146 21.8601 34.4146 21.9741 34.4146 22.0755L41.7106 19.6055C41.4826 18.9721 41.1152 18.4275 40.6086 17.9715C40.1019 17.4901 39.3419 17.2495 38.3286 17.2495C37.1379 17.2495 36.1879 17.6548 35.4786 18.4655C34.7692 19.2761 34.4146 20.3655 34.4146 21.7335ZM51.4665 30.5115V0.529473H56.7865V19.3015L64.6905 13.4875L67.9205 16.3375L62.0305 20.7835L68.5285 30.5115H62.3345L58.2685 23.5955L56.7865 24.6975V30.5115H51.4665ZM73.7686 6.60947H79.0886V13.8295H83.1166V17.9715H79.0886V30.5115H73.7686V17.9715H71.1846V13.8295H73.7686V6.60947ZM85.8737 21.9995C85.8737 20.3021 86.2664 18.7821 87.0517 17.4395C87.8624 16.0968 88.9897 15.0455 90.4337 14.2855C91.8777 13.5001 93.537 13.1075 95.4117 13.1075C97.3117 13.1075 98.9584 13.5001 100.352 14.2855C101.745 15.0455 102.809 16.0968 103.544 17.4395C104.304 18.7821 104.684 20.3021 104.684 21.9995C104.684 23.6968 104.304 25.2295 103.544 26.5975C102.809 27.9401 101.745 29.0041 100.352 29.7895C98.9584 30.5748 97.2864 30.9675 95.3357 30.9675C93.5117 30.9675 91.8777 30.6128 90.4337 29.9035C89.015 29.1941 87.9004 28.1681 87.0897 26.8255C86.279 25.4828 85.8737 23.8741 85.8737 21.9995ZM91.2317 22.0375C91.2317 23.3548 91.6117 24.4568 92.3717 25.3435C93.1317 26.2048 94.0944 26.6355 95.2597 26.6355C96.501 26.6355 97.489 26.2048 98.2237 25.3435C98.9584 24.4568 99.3257 23.3548 99.3257 22.0375C99.3257 20.7201 98.9584 19.6308 98.2237 18.7695C97.489 17.8828 96.501 17.4395 95.2597 17.4395C94.0944 17.4395 93.1317 17.8828 92.3717 18.7695C91.6117 19.6308 91.2317 20.7201 91.2317 22.0375Z" fill="black"/>
</svg>
